<svg width="350" height="200" viewBox="0 0 350 200" fill="none" xmlns="http://www.w3.org/2000/svg">
<g clip-path="url(#clip0)">
<rect x="-27" y="-43.3887" width="416.88" height="336.336" fill="#D0DFFE"/>
<path d="M635 -71.4746C635 -71.4746 489.964 -102.273 490.953 -46.7953C491.943 8.47823 452.927 39.2764 394.263 16.8406C335.598 -5.79906 259.121 -30.2744 255.446 14.801C251.771 59.8765 166.813 45.5992 112.672 8.68218C58.5303 -28.2348 -67.7051 7.66237 -47.9145 105.564V231H635V-71.4746Z" fill="#DEEAFE"/>
<path d="M-66.4425 183.164C-66.4425 183.164 -1.71356 101 85.9508 101C173.615 101 229.782 165.491 281.055 172.823C332.43 180.344 412.552 136.16 412.552 136.16V390.738H-66.4425V183.164Z" fill="#C8DBFF"/>
<g filter="url(#filter0_dd)">
<rect x="26" y="20" width="298" height="159" rx="4.47917" fill="white"/>
<rect x="37" y="72" width="276" height="94" rx="10" fill="#E2E6EE"/>
<rect x="26" y="20" width="298" height="14" fill="#1366F4"/>
<rect x="209" y="142.729" width="109.292" height="29.5625" rx="14.7812" fill="#0A7155"/>
<circle cx="223.333" cy="157.063" r="8.73438" fill="#0CA77D" stroke="white" stroke-width="0.447917"/>
<path d="M222.011 158.876L226.903 153.031L227.932 153.892L222.205 160.734L218.406 157.748L219.235 156.693L222.011 158.876Z" fill="white"/>
<rect x="235.875" y="147.209" width="68.9792" height="4.47917" rx="2.23958" fill="#499C86"/>
<rect x="235.875" y="155.271" width="68.9792" height="4.47917" rx="2.23958" fill="#499C86"/>
<rect x="235.875" y="163.334" width="40.3125" height="4.47917" rx="2.23958" fill="#499C86"/>
<rect x="37" y="43" width="276" height="21" rx="10" fill="#E2E6EE"/>
<circle cx="311" cy="27" r="2" fill="white"/>
<circle cx="303" cy="27" r="2" fill="white"/>
<circle cx="295" cy="27" r="2" fill="white"/>
</g>
</g>
<defs>
<filter id="filter0_dd" x="22" y="17" width="306" height="168" filterUnits="userSpaceOnUse" color-interpolation-filters="sRGB">
<feFlood flood-opacity="0" result="BackgroundImageFix"/>
<feColorMatrix in="SourceAlpha" type="matrix" values="0 0 0 0 0 0 0 0 0 0 0 0 0 0 0 0 0 0 127 0"/>
<feOffset dy="2"/>
<feGaussianBlur stdDeviation="2"/>
<feColorMatrix type="matrix" values="0 0 0 0 0.129412 0 0 0 0 0.160784 0 0 0 0 0.203922 0 0 0 0.12 0"/>
<feBlend mode="normal" in2="BackgroundImageFix" result="effect1_dropShadow"/>
<feColorMatrix in="SourceAlpha" type="matrix" values="0 0 0 0 0 0 0 0 0 0 0 0 0 0 0 0 0 0 127 0"/>
<feOffset dy="-1"/>
<feGaussianBlur stdDeviation="1"/>
<feColorMatrix type="matrix" values="0 0 0 0 0 0 0 0 0 0 0 0 0 0 0 0 0 0 0.08 0"/>
<feBlend mode="normal" in2="effect1_dropShadow" result="effect2_dropShadow"/>
<feBlend mode="normal" in="SourceGraphic" in2="effect2_dropShadow" result="shape"/>
</filter>
<clipPath id="clip0">
<rect width="350" height="200" fill="white"/>
</clipPath>
</defs>
</svg>
